<mxfile host="Electron" modified="2024-02-08T17:02:43.160Z" agent="Mozilla/5.0 (X11; Linux x86_64) AppleWebKit/537.36 (KHTML, like Gecko) draw.io/22.1.16 Chrome/120.0.6099.109 Electron/28.1.1 Safari/537.36" etag="d3UqCvjEXLm8aeXa0STt" version="22.1.16" type="device">
  <diagram name="Seite-1" id="sgqPQjKhVZXb0571wNXU">
    <mxGraphModel dx="954" dy="576" grid="1" gridSize="10" guides="1" tooltips="1" connect="1" arrows="1" fold="1" page="1" pageScale="1" pageWidth="827" pageHeight="1169" math="0" shadow="0">
      <root>
        <mxCell id="0" />
        <mxCell id="1" parent="0" />
        <mxCell id="pxNu8yLYfZmzI5YL1-k2-2" value="" style="whiteSpace=wrap;html=1;aspect=fixed;" parent="1" vertex="1">
          <mxGeometry x="149" y="120" width="620" height="620" as="geometry" />
        </mxCell>
        <mxCell id="pxNu8yLYfZmzI5YL1-k2-3" value="&lt;font style=&quot;font-size: 18px;&quot;&gt;Docker Network&lt;/font&gt;" style="text;html=1;strokeColor=none;fillColor=none;align=center;verticalAlign=middle;whiteSpace=wrap;rounded=0;" parent="1" vertex="1">
          <mxGeometry x="149" y="120" width="150" height="30" as="geometry" />
        </mxCell>
        <mxCell id="pxNu8yLYfZmzI5YL1-k2-5" value="" style="shape=image;verticalLabelPosition=bottom;labelBackgroundColor=default;verticalAlign=top;aspect=fixed;imageAspect=0;image=https://d1.awsstatic.com/acs/characters/Logos/Docker-Logo_Horizontel_279x131.b8a5c41e56b77706656d61080f6a0217a3ba356d.png;" parent="1" vertex="1">
          <mxGeometry x="279" y="130" width="149.08" height="70" as="geometry" />
        </mxCell>
        <mxCell id="pxNu8yLYfZmzI5YL1-k2-36" style="edgeStyle=orthogonalEdgeStyle;rounded=0;orthogonalLoop=1;jettySize=auto;html=1;" parent="1" source="pxNu8yLYfZmzI5YL1-k2-8" edge="1">
          <mxGeometry relative="1" as="geometry">
            <mxPoint x="59" y="330" as="targetPoint" />
          </mxGeometry>
        </mxCell>
        <mxCell id="pxNu8yLYfZmzI5YL1-k2-8" value="" style="rounded=0;whiteSpace=wrap;html=1;" parent="1" vertex="1">
          <mxGeometry x="204" y="240" width="305" height="180" as="geometry" />
        </mxCell>
        <mxCell id="pxNu8yLYfZmzI5YL1-k2-9" value="&lt;font style=&quot;font-size: 14px;&quot;&gt;Angular&lt;/font&gt;" style="text;html=1;strokeColor=none;fillColor=none;align=center;verticalAlign=middle;whiteSpace=wrap;rounded=0;" parent="1" vertex="1">
          <mxGeometry x="219" y="250" width="60" height="30" as="geometry" />
        </mxCell>
        <mxCell id="pxNu8yLYfZmzI5YL1-k2-11" value="View Templates" style="whiteSpace=wrap;html=1;aspect=fixed;" parent="1" vertex="1">
          <mxGeometry x="224" y="310" width="80" height="80" as="geometry" />
        </mxCell>
        <mxCell id="pxNu8yLYfZmzI5YL1-k2-12" value="Components" style="whiteSpace=wrap;html=1;aspect=fixed;" parent="1" vertex="1">
          <mxGeometry x="323" y="310" width="80" height="80" as="geometry" />
        </mxCell>
        <mxCell id="pxNu8yLYfZmzI5YL1-k2-13" value="Services" style="whiteSpace=wrap;html=1;aspect=fixed;" parent="1" vertex="1">
          <mxGeometry x="419" y="310" width="80" height="80" as="geometry" />
        </mxCell>
        <mxCell id="pxNu8yLYfZmzI5YL1-k2-14" value="" style="shape=image;verticalLabelPosition=bottom;labelBackgroundColor=default;verticalAlign=top;aspect=fixed;imageAspect=0;image=https://maximago.de/wp-content/uploads/2022/11/angular-maximago.png;" parent="1" vertex="1">
          <mxGeometry x="269" y="240" width="83.45" height="50" as="geometry" />
        </mxCell>
        <mxCell id="pxNu8yLYfZmzI5YL1-k2-33" style="edgeStyle=orthogonalEdgeStyle;rounded=0;orthogonalLoop=1;jettySize=auto;html=1;" parent="1" edge="1">
          <mxGeometry relative="1" as="geometry">
            <mxPoint x="649.0000000000002" y="450" as="sourcePoint" />
            <mxPoint x="649.0000000000002" y="360" as="targetPoint" />
            <Array as="points">
              <mxPoint x="649" y="420" />
              <mxPoint x="649" y="420" />
            </Array>
          </mxGeometry>
        </mxCell>
        <mxCell id="pxNu8yLYfZmzI5YL1-k2-39" style="edgeStyle=orthogonalEdgeStyle;rounded=0;orthogonalLoop=1;jettySize=auto;html=1;" parent="1" source="pxNu8yLYfZmzI5YL1-k2-15" edge="1">
          <mxGeometry relative="1" as="geometry">
            <mxPoint x="59" y="580" as="targetPoint" />
          </mxGeometry>
        </mxCell>
        <mxCell id="pxNu8yLYfZmzI5YL1-k2-15" value="" style="rounded=0;whiteSpace=wrap;html=1;" parent="1" vertex="1">
          <mxGeometry x="204" y="450" width="536" height="260" as="geometry" />
        </mxCell>
        <mxCell id="pxNu8yLYfZmzI5YL1-k2-16" value="&lt;font style=&quot;font-size: 14px;&quot;&gt;Spring Boot&lt;/font&gt;" style="text;html=1;strokeColor=none;fillColor=none;align=center;verticalAlign=middle;whiteSpace=wrap;rounded=0;" parent="1" vertex="1">
          <mxGeometry x="204" y="460" width="105" height="30" as="geometry" />
        </mxCell>
        <mxCell id="pxNu8yLYfZmzI5YL1-k2-26" value="" style="edgeStyle=orthogonalEdgeStyle;rounded=0;orthogonalLoop=1;jettySize=auto;html=1;" parent="1" edge="1">
          <mxGeometry relative="1" as="geometry">
            <mxPoint x="324" y="600" as="sourcePoint" />
            <mxPoint x="353" y="600" as="targetPoint" />
          </mxGeometry>
        </mxCell>
        <mxCell id="pxNu8yLYfZmzI5YL1-k2-20" value="Contorller" style="verticalLabelPosition=bottom;verticalAlign=top;html=1;shape=mxgraph.basic.layered_rect;dx=10;outlineConnect=0;whiteSpace=wrap;" parent="1" vertex="1">
          <mxGeometry x="224" y="510" width="100" height="150" as="geometry" />
        </mxCell>
        <mxCell id="pxNu8yLYfZmzI5YL1-k2-27" value="" style="edgeStyle=orthogonalEdgeStyle;rounded=0;orthogonalLoop=1;jettySize=auto;html=1;" parent="1" target="pxNu8yLYfZmzI5YL1-k2-22" edge="1">
          <mxGeometry relative="1" as="geometry">
            <mxPoint x="453" y="605" as="sourcePoint" />
            <mxPoint x="549" y="600" as="targetPoint" />
            <Array as="points">
              <mxPoint x="453" y="610" />
              <mxPoint x="519" y="610" />
            </Array>
          </mxGeometry>
        </mxCell>
        <mxCell id="pxNu8yLYfZmzI5YL1-k2-28" style="edgeStyle=orthogonalEdgeStyle;rounded=0;orthogonalLoop=1;jettySize=auto;html=1;" parent="1" source="pxNu8yLYfZmzI5YL1-k2-21" target="pxNu8yLYfZmzI5YL1-k2-23" edge="1">
          <mxGeometry relative="1" as="geometry">
            <Array as="points">
              <mxPoint x="639" y="640" />
            </Array>
          </mxGeometry>
        </mxCell>
        <mxCell id="pxNu8yLYfZmzI5YL1-k2-42" value="" style="edgeStyle=orthogonalEdgeStyle;rounded=0;orthogonalLoop=1;jettySize=auto;html=1;" parent="1" source="pxNu8yLYfZmzI5YL1-k2-21" target="pxNu8yLYfZmzI5YL1-k2-20" edge="1">
          <mxGeometry relative="1" as="geometry" />
        </mxCell>
        <mxCell id="pxNu8yLYfZmzI5YL1-k2-21" value="Services" style="verticalLabelPosition=bottom;verticalAlign=top;html=1;shape=mxgraph.basic.layered_rect;dx=10;outlineConnect=0;whiteSpace=wrap;" parent="1" vertex="1">
          <mxGeometry x="353" y="510" width="100" height="150" as="geometry" />
        </mxCell>
        <mxCell id="pxNu8yLYfZmzI5YL1-k2-45" style="edgeStyle=orthogonalEdgeStyle;rounded=0;orthogonalLoop=1;jettySize=auto;html=1;" parent="1" source="pxNu8yLYfZmzI5YL1-k2-22" target="pxNu8yLYfZmzI5YL1-k2-21" edge="1">
          <mxGeometry relative="1" as="geometry">
            <Array as="points">
              <mxPoint x="579" y="630" />
            </Array>
          </mxGeometry>
        </mxCell>
        <mxCell id="pxNu8yLYfZmzI5YL1-k2-22" value="Model" style="verticalLabelPosition=bottom;verticalAlign=top;html=1;shape=mxgraph.basic.layered_rect;dx=10;outlineConnect=0;whiteSpace=wrap;" parent="1" vertex="1">
          <mxGeometry x="499" y="510" width="100" height="70" as="geometry" />
        </mxCell>
        <mxCell id="pxNu8yLYfZmzI5YL1-k2-31" value="" style="edgeStyle=orthogonalEdgeStyle;rounded=0;orthogonalLoop=1;jettySize=auto;html=1;" parent="1" source="pxNu8yLYfZmzI5YL1-k2-23" target="pxNu8yLYfZmzI5YL1-k2-22" edge="1">
          <mxGeometry relative="1" as="geometry" />
        </mxCell>
        <mxCell id="pxNu8yLYfZmzI5YL1-k2-44" style="edgeStyle=orthogonalEdgeStyle;rounded=0;orthogonalLoop=1;jettySize=auto;html=1;" parent="1" source="pxNu8yLYfZmzI5YL1-k2-23" target="pxNu8yLYfZmzI5YL1-k2-21" edge="1">
          <mxGeometry relative="1" as="geometry">
            <Array as="points">
              <mxPoint x="699" y="650" />
            </Array>
          </mxGeometry>
        </mxCell>
        <mxCell id="pxNu8yLYfZmzI5YL1-k2-23" value="Repo" style="verticalLabelPosition=bottom;verticalAlign=top;html=1;shape=mxgraph.basic.layered_rect;dx=10;outlineConnect=0;whiteSpace=wrap;" parent="1" vertex="1">
          <mxGeometry x="619" y="510" width="100" height="70" as="geometry" />
        </mxCell>
        <mxCell id="pxNu8yLYfZmzI5YL1-k2-46" value="" style="edgeStyle=orthogonalEdgeStyle;rounded=0;orthogonalLoop=1;jettySize=auto;html=1;" parent="1" source="pxNu8yLYfZmzI5YL1-k2-32" target="pxNu8yLYfZmzI5YL1-k2-15" edge="1">
          <mxGeometry relative="1" as="geometry">
            <Array as="points">
              <mxPoint x="659" y="430" />
              <mxPoint x="659" y="430" />
            </Array>
          </mxGeometry>
        </mxCell>
        <mxCell id="pxNu8yLYfZmzI5YL1-k2-32" value="Mysql" style="strokeWidth=2;html=1;shape=mxgraph.flowchart.database;whiteSpace=wrap;" parent="1" vertex="1">
          <mxGeometry x="579" y="240" width="160" height="120" as="geometry" />
        </mxCell>
        <mxCell id="pxNu8yLYfZmzI5YL1-k2-35" value="Port 3306" style="text;html=1;strokeColor=none;fillColor=none;align=center;verticalAlign=middle;whiteSpace=wrap;rounded=0;" parent="1" vertex="1">
          <mxGeometry x="589" y="370" width="60" height="30" as="geometry" />
        </mxCell>
        <mxCell id="pxNu8yLYfZmzI5YL1-k2-38" value="Port 4200&lt;span style=&quot;white-space: pre;&quot;&gt;&#x9;&lt;/span&gt;4200" style="text;html=1;strokeColor=none;fillColor=none;align=center;verticalAlign=middle;whiteSpace=wrap;rounded=0;" parent="1" vertex="1">
          <mxGeometry x="79" y="300" width="111" height="30" as="geometry" />
        </mxCell>
        <mxCell id="pxNu8yLYfZmzI5YL1-k2-40" value="Port 8080&lt;span style=&quot;white-space: pre;&quot;&gt;&#x9;&lt;/span&gt;8080" style="text;html=1;strokeColor=none;fillColor=none;align=center;verticalAlign=middle;whiteSpace=wrap;rounded=0;" parent="1" vertex="1">
          <mxGeometry x="79" y="540" width="110" height="30" as="geometry" />
        </mxCell>
        <mxCell id="pxNu8yLYfZmzI5YL1-k2-47" value="" style="shape=image;verticalLabelPosition=bottom;labelBackgroundColor=default;verticalAlign=top;aspect=fixed;imageAspect=0;image=https://ertan-toker.de/wp-content/uploads/2018/04/spring-boot-project-logo-1-thegem-blog-default.png;" parent="1" vertex="1">
          <mxGeometry x="288.52000000000004" y="440" width="77.78" height="70" as="geometry" />
        </mxCell>
        <mxCell id="pxNu8yLYfZmzI5YL1-k2-48" style="edgeStyle=orthogonalEdgeStyle;rounded=0;orthogonalLoop=1;jettySize=auto;html=1;exitX=1;exitY=1;exitDx=0;exitDy=0;" parent="1" source="pxNu8yLYfZmzI5YL1-k2-47" target="pxNu8yLYfZmzI5YL1-k2-47" edge="1">
          <mxGeometry relative="1" as="geometry" />
        </mxCell>
      </root>
    </mxGraphModel>
  </diagram>
</mxfile>
